#!OML:ASF F:\VICON\USERDATA\INSTALL\rory3\rory3.ASF
:FULLY-SPECIFIED
:DEGREES
66
root -0.4077541886665231 18.449651876448875 30.729820946453685 2.720672492030344 5.734050945555192 -4.025354404323045
lfemur -32.70277072803635 -2.125026892961365 -19.072464504804664
ltibia 35.309375463414824
lfoot 7.288646178170881 -15.50858645283666
ltoes -15.899665129248028
rfemur 8.414053137322608 6.165715203237328 33.99110616362061
rtibia 49.64297896192369
rfoot 20.409981306621802 -8.322439435160616
rtoes 7.771309382268544
lowerback 1.0 1.668681334304511 5.439591483551288
upperback -1.6083626124845756 3.250875310543283 1.423984276718668
thorax -8.134508711485987 1.3468037499428946 -2.340513145728776
lowerneck -18.90944583591742 -5.599577614864899 -2.085590841880033
upperneck 12.088538575542099 -7.749012215514357 2.601816316766668
head 7.042600580722552 -3.5802080905028637 0.15938245701620407
lclavicle -2.944394373288707e-15 -7.988558518201385e-15
lhumerus -59.66266899156177 -11.324794789065548 98.06970251769383
lradius 109.26191036981035
lwrist 36.607388733953314
lhand -31.459220121371764 -1.534422994059045
lfingers 7.12502
lthumb -4.977165067237049 28.704735067315212
rclavicle -1.9525266037679823e-15 -7.370164745158019e-15
rhumerus -44.428717080535726 14.980137106450957 -97.01800242215202
rradius 128.13213132439788
rwrist -11.644727629815609
rhand -17.751691483782967 1.0
rfingers 7.12502
rthumb 7.19898310523902 11.04476701689539
67
root -0.4153334548240466 18.411983627090443 31.64307632495265 2.315278482763283 6.214490376990998 -3.7185818932813124
lfemur -30.759100293751175 -2.417955431580336 -19.73170879092156
ltibia 32.16390372569941
lfoot 8.317794794960747 -14.150325042582141
ltoes -17.39828353293609
rfemur 6.566520305746078 5.380939085333372 33.25623049125348
rtibia 57.27839587917677
rfoot 19.711226470432965 -9.797052163083642
rtoes 7.2941952124078835
lowerback 1.0 1.5634805592634922 4.933261546340294
upperback -1.3638911330666927 3.0740637738172216 1.3788492395143195
thorax -8.133191849250583 1.2941654917738625 -2.1115487452893618
lowerneck -18.93694477351454 -5.553560248797833 -2.091190509750999
upperneck 11.744606336094966 -7.711328650944265 2.860623064191367
head 6.9189670408432065 -3.5481421661382715 0.26243364172812345
lclavicle -3.129186188589134e-15 -8.236053339241047e-15
lhumerus -59.14190091686012 -11.509993369912047 98.08136710654347
lradius 109.9556790136318
lwrist 36.41726784069688
lhand -31.716798209818606 -1.5185523172944213
lfingers 7.12502
lthumb -5.038585029174987 28.70787935620068
rclavicle -2.38972598322825e-15 -7.779170941752064e-15
rhumerus -44.76173335825193 15.154046416333221 -97.47741192634233
rradius 127.95095307203809
rwrist -11.358228770690458
rhand -17.87377294221635 1.0
rfingers 7.12502
rthumb 7.100561301914317 10.755283096461676
68
root -0.43019862303511375 18.336773633518657 32.68864034843354 1.8549741520978806 6.7072652539484245 -3.145675397244992
lfemur -28.714596625175954 -2.6420134173038345 -20.783262257002807
ltibia 31.104032615229386
lfoot 8.473450628254813 -14.26566191145944
ltoes -16.743865185699377
rfemur 4.490817940755516 4.13045025556913 31.876073729541346
rtibia 65.41953305707396
rfoot 19.19672279447765 -11.275726208246311
rtoes 7.001161045160229
lowerback 1.0 1.4313836883028848 4.170467463960733
upperback -1.0586765953283608 2.803531058618409 1.24015132288054
thorax -8.127820684784902 1.1967109998009526 -1.7717455117458107
lowerneck -19.00136675321366 -5.4940585757929785 -2.0840811388485756
upperneck 11.480158325446753 -7.662778495141172 3.1091769337032553
head 6.8022607508510555 -3.5106726482160147 0.3653888315713504
lclavicle -1.266147874611913e-15 -5.7883359579622836e-15
lhumerus -58.323206715576994 -11.846221204888414 98.09955565079842
lradius 110.5581972591994
lwrist 36.149150013422236
lhand -31.840785889867796 -1.3577409000898468
lfingers 7.12502
lthumb -5.062148637723831 28.69833115918648
rclavicle -8.832420931777489e-16 -5.615596171859716e-15
rhumerus -45.1653644114064 15.186108174242314 -98.02499414561574
rradius 127.61058058162804
rwrist -11.156263091980755
rhand -17.812126405535118 1.0
rfingers 7.12502
rthumb 7.156295527076494 10.80645201851318
69
root -0.45422937801468743 18.20780510562372 32.933470439538254 1.2777100186513803 7.144327222077828 -2.440754547263067
lfemur -26.582092220326725 -2.688452158648375 -22.033350868745142
ltibia 31.938553234546244
lfoot 6.613495566989359 -15.556097933765855
ltoes -13.068191997447649
rfemur 2.0728435458582837 2.499463504786549 30.071155336185825
rtibia 73.91398923536659
rfoot 18.393699637228107 -12.475456843988123
rtoes 8.725287632694707
lowerback 1.0 1.2731031340329904 3.253024325075045
upperback -0.7714502384682713 2.4398079853758174 1.0336701124931176
thorax -8.253065560053564 1.0522519700824846 -1.3816996590090689
lowerneck -19.051761515958148 -5.4132352365760195 -2.0624625862958115
upperneck 11.28502756217173 -7.586845205538383 3.33820226162219
head 6.720574658134717 -3.4615175256248762 0.4620490237258603
lclavicle 1.0805486199409812e-15 -2.2028016075774866e-15
lhumerus -57.11913600121353 -12.339206909840794 98.11841045657668
lradius 111.00823517116353
lwrist 36.09988296944631
lhand -31.983462183558398 -1.3269108549107425
lfingers 7.12502
lthumb -5.194673584867391 28.62427293460597
rclavicle 1.6316632143073215e-15 -2.4225795214961004e-15
rhumerus -45.63879785392331 15.069151821422558 -98.63760975926029
rradius 127.13824015465167
rwrist -11.036506799740037
rhand -17.92048670013541 1.0
rfingers 7.12502
rthumb 7.047329428436607 10.358361037323888
